<svg width="17" height="17" viewBox="0 0 17 17" fill="none" xmlns="http://www.w3.org/2000/svg">
<path d="M8.5 4.95833C9.28241 4.95833 9.91667 4.32407 9.91667 3.54167C9.91667 2.75926 9.28241 2.125 8.5 2.125C7.7176 2.125 7.08334 2.75926 7.08334 3.54167C7.08334 4.32407 7.7176 4.95833 8.5 4.95833Z" stroke="white" stroke-linecap="round" stroke-linejoin="round"/>
<path d="M3.54167 14.875C4.32407 14.875 4.95833 14.2407 4.95833 13.4583C4.95833 12.6759 4.32407 12.0417 3.54167 12.0417C2.75926 12.0417 2.125 12.6759 2.125 13.4583C2.125 14.2407 2.75926 14.875 3.54167 14.875Z" stroke="white" stroke-linecap="round" stroke-linejoin="round"/>
<path d="M13.4583 14.875C14.2407 14.875 14.875 14.2407 14.875 13.4583C14.875 12.6759 14.2407 12.0417 13.4583 12.0417C12.6759 12.0417 12.0417 12.6759 12.0417 13.4583C12.0417 14.2407 12.6759 14.875 13.4583 14.875Z" stroke="white" stroke-linecap="round" stroke-linejoin="round"/>
<path d="M4.60416 12.3958L8.5 9.20834L12.3958 12.3958" stroke="white" stroke-linecap="round" stroke-linejoin="round"/>
<path d="M8.5 4.95834V9.20834" stroke="white" stroke-linecap="round" stroke-linejoin="round"/>
</svg>
