<svg width="17" height="17" viewBox="0 0 17 17" fill="none" xmlns="http://www.w3.org/2000/svg">
<path d="M8.5 4.95833C9.28241 4.95833 9.91667 4.32407 9.91667 3.54167C9.91667 2.75926 9.28241 2.125 8.5 2.125C7.7176 2.125 7.08334 2.75926 7.08334 3.54167C7.08334 4.32407 7.7176 4.95833 8.5 4.95833Z" stroke="white" stroke-linecap="round" stroke-linejoin="round"/>
<path d="M5.66667 9.91667C6.44907 9.91667 7.08333 9.2824 7.08333 8.5C7.08333 7.7176 6.44907 7.08333 5.66667 7.08333C4.88426 7.08333 4.25 7.7176 4.25 8.5C4.25 9.2824 4.88426 9.91667 5.66667 9.91667Z" stroke="white" stroke-linecap="round" stroke-linejoin="round"/>
<path d="M8.5 14.875C9.28241 14.875 9.91667 14.2407 9.91667 13.4583C9.91667 12.6759 9.28241 12.0417 8.5 12.0417C7.7176 12.0417 7.08334 12.6759 7.08334 13.4583C7.08334 14.2407 7.7176 14.875 8.5 14.875Z" stroke="white" stroke-linecap="round" stroke-linejoin="round"/>
<path d="M14.1667 14.875C14.9491 14.875 15.5833 14.2407 15.5833 13.4583C15.5833 12.6759 14.9491 12.0417 14.1667 12.0417C13.3843 12.0417 12.75 12.6759 12.75 13.4583C12.75 14.2407 13.3843 14.875 14.1667 14.875Z" stroke="white" stroke-linecap="round" stroke-linejoin="round"/>
<path d="M2.83333 14.875C3.61573 14.875 4.25 14.2407 4.25 13.4583C4.25 12.6759 3.61573 12.0417 2.83333 12.0417C2.05093 12.0417 1.41666 12.6759 1.41666 13.4583C1.41666 14.2407 2.05093 14.875 2.83333 14.875Z" stroke="white" stroke-linecap="round" stroke-linejoin="round"/>
<path d="M11.3333 9.91667C12.1157 9.91667 12.75 9.2824 12.75 8.5C12.75 7.7176 12.1157 7.08333 11.3333 7.08333C10.5509 7.08333 9.91667 7.7176 9.91667 8.5C9.91667 9.2824 10.5509 9.91667 11.3333 9.91667Z" stroke="white" stroke-linecap="round" stroke-linejoin="round"/>
<path d="M3.54166 12.0417L4.95833 9.91666" stroke="white" stroke-linecap="round" stroke-linejoin="round"/>
<path d="M6.375 7.08334L7.79167 4.95834" stroke="white" stroke-linecap="round" stroke-linejoin="round"/>
<path d="M9.20834 4.95834L10.625 7.08334" stroke="white" stroke-linecap="round" stroke-linejoin="round"/>
<path d="M12.0417 9.91666L13.4583 12.0417" stroke="white" stroke-linecap="round" stroke-linejoin="round"/>
<path d="M10.625 9.91666L9.20834 12.0417" stroke="white" stroke-linecap="round" stroke-linejoin="round"/>
<path d="M6.375 9.91666L7.79167 12.0417" stroke="white" stroke-linecap="round" stroke-linejoin="round"/>
</svg>
